<?xml version="1.0" standalone="no"?>
<!DOCTYPE svg PUBLIC "-//W3C//DTD SVG 20010904//EN"
 "http://www.w3.org/TR/2001/REC-SVG-20010904/DTD/svg10.dtd">
<svg version="1.0" xmlns="http://www.w3.org/2000/svg"
 width="275.000000pt" height="114.000000pt" viewBox="0 0 275.000000 114.000000"
 preserveAspectRatio="xMidYMid meet">

<g transform="translate(0.000000,114.000000) scale(0.100000,-0.100000)"
fill="#000000" stroke="none">
<path d="M0 570 l0 -570 1375 0 1375 0 0 570 0 570 -1375 0 -1375 0 0 -570z
m670 0 l0 -510 -300 0 -300 0 0 510 0 510 300 0 300 0 0 -510z m760 0 l0 -510
-340 0 -340 0 0 510 0 510 340 0 340 0 0 -510z m580 0 l0 -510 -250 0 -250 0
0 510 0 510 250 0 250 0 0 -510z m660 0 l0 -510 -290 0 -290 0 0 510 0 510
290 0 290 0 0 -510z"/>
</g>
</svg>
