<?xml version="1.0" standalone="no"?>
<!DOCTYPE svg PUBLIC "-//W3C//DTD SVG 20010904//EN"
 "http://www.w3.org/TR/2001/REC-SVG-20010904/DTD/svg10.dtd">
<svg version="1.0" xmlns="http://www.w3.org/2000/svg"
 width="275.000000pt" height="114.000000pt" viewBox="0 0 275.000000 114.000000"
 preserveAspectRatio="xMidYMid meet">

<g transform="translate(0.000000,114.000000) scale(0.100000,-0.100000)"
fill="#000000" stroke="none">
<path d="M0 570 l0 -570 1375 0 1375 0 0 570 0 570 -1375 0 -1375 0 0 -570z
m2670 355 l0 -155 -1300 0 -1300 0 0 155 0 155 1300 0 1300 0 0 -155z m0 -400
l0 -185 -1300 0 -1300 0 0 185 0 185 1300 0 1300 0 0 -185z m0 -355 l0 -110
-1300 0 -1300 0 0 110 0 110 1300 0 1300 0 0 -110z"/>
</g>
</svg>
