<?xml version="1.0" standalone="no"?>
<!DOCTYPE svg PUBLIC "-//W3C//DTD SVG 20010904//EN"
 "http://www.w3.org/TR/2001/REC-SVG-20010904/DTD/svg10.dtd">
<svg version="1.0" xmlns="http://www.w3.org/2000/svg"
 width="86.000000pt" height="830.000000pt" viewBox="0 0 86.000000 830.000000"
 preserveAspectRatio="xMidYMid meet">

<g transform="translate(0.000000,830.000000) scale(0.100000,-0.100000)"
fill="#000000" stroke="none">
<path d="M361 7966 c-129 -130 -129 -136 4 -136 l95 0 0 -3705 0 -3705 -90 0
c-127 0 -127 -7 1 -136 57 -57 111 -104 119 -104 8 0 62 47 119 104 129 130
129 136 -4 136 l-95 0 0 3705 0 3705 90 0 c127 0 127 7 -1 136 -57 57 -111
104 -119 104 -8 0 -62 -47 -119 -104z m99 -31 l0 -55 -57 0 -57 0 54 55 c30
30 56 55 57 55 2 0 3 -25 3 -55z m105 -5 l49 -50 -52 0 -52 0 0 50 c0 28 1 50
3 50 1 0 25 -22 52 -50z m-105 -7610 c0 -27 -1 -50 -3 -50 -1 0 -25 23 -52 50
l-49 50 52 0 52 0 0 -50z m160 47 c0 -1 -25 -27 -55 -57 l-55 -54 0 57 0 57
55 0 c30 0 55 -1 55 -3z"/>
</g>
</svg>
