<?xml version="1.0" standalone="no"?>
<!DOCTYPE svg PUBLIC "-//W3C//DTD SVG 20010904//EN"
 "http://www.w3.org/TR/2001/REC-SVG-20010904/DTD/svg10.dtd">
<svg version="1.0" xmlns="http://www.w3.org/2000/svg"
 width="830.000000pt" height="86.000000pt" viewBox="0 0 830.000000 86.000000"
 preserveAspectRatio="xMidYMid meet">

<g transform="translate(0.000000,86.000000) scale(0.100000,-0.100000)"
fill="#000000" stroke="none">
<path d="M7887 703 c-4 -3 -7 -48 -7 -100 l0 -93 -3705 0 -3705 0 0 90 c0 127
-7 127 -136 -1 -57 -57 -104 -111 -104 -119 0 -8 47 -62 104 -119 130 -129
136 -129 136 4 l0 95 3705 0 3705 0 0 -90 c0 -127 7 -127 136 1 57 57 104 110
104 119 0 17 -199 220 -216 220 -6 0 -14 -3 -17 -7z m103 -138 l54 -55 -57 0
-57 0 0 55 c0 30 1 55 3 55 1 0 27 -25 57 -55z m-7570 -5 l0 -50 -52 0 -52 0
49 50 c27 28 51 50 52 50 2 0 3 -22 3 -50z m0 -155 c0 -30 -1 -55 -3 -55 -1 0
-27 25 -57 55 l-54 55 57 0 57 0 0 -55z m7610 52 c0 -1 -22 -25 -50 -52 l-50
-49 0 52 0 52 50 0 c28 0 50 -1 50 -3z"/>
</g>
</svg>
