<?xml version="1.0" encoding="utf-8"?>
<!-- Generator: Adobe Illustrator 21.0.0, SVG Export Plug-In . SVG Version: 6.00 Build 0)  -->
<svg version="1.1" xmlns="http://www.w3.org/2000/svg" xmlns:xlink="http://www.w3.org/1999/xlink" x="0px" y="0px"
	 viewBox="0 0 841.9 566.9" style="enable-background:new 0 0 841.9 566.9;" xml:space="preserve">
<style type="text/css">
	.st0{fill:#FFFFFF;stroke:#000000;stroke-width:3;stroke-linecap:round;stroke-linejoin:round;stroke-miterlimit:10;}
	.st1{fill:#3B94EC;}
	.st2{fill:none;stroke:#000000;stroke-width:3;stroke-linecap:round;stroke-linejoin:round;stroke-miterlimit:10;}
	.st3{fill:#FFFFFF;}
	.st4{fill:#3381E0;}
	.st5{fill:#DEDEDE;}
	.st6{fill:#E8F2FC;stroke:#FFFFFF;stroke-miterlimit:10;}
	.st7{fill:none;stroke:#FFFFFF;stroke-width:3;stroke-miterlimit:10;}
	.st8{fill:none;stroke:#070707;stroke-width:3;}
	.st9{fill:none;stroke:#000000;stroke-width:3;stroke-linecap:round;stroke-dasharray:15,11;}
	.st10{fill:#E8F2FC;}
	.st11{fill:#FFFFFF;stroke:#070707;stroke-width:3;}
	.st12{fill:none;stroke:#070707;stroke-width:3;stroke-linejoin:round;}
	.st13{fill:none;stroke:#FFFFFF;stroke-width:3;stroke-linecap:round;stroke-linejoin:round;}
	.st14{fill:#FFFFFF;stroke:#000000;stroke-width:3;stroke-linecap:round;stroke-linejoin:round;}
	.st15{fill:#3B94EC;stroke:#000000;stroke-width:3;stroke-linecap:round;stroke-linejoin:round;}
	.st16{fill:#D8DBD7;}
	.st17{fill:#FFFFFF;stroke:#000000;stroke-width:3;stroke-miterlimit:10;}
	.st18{fill:#FFFFFF;stroke:#070707;stroke-width:3;stroke-linecap:round;stroke-linejoin:round;}
	.st19{fill:none;stroke:#070707;stroke-width:3;stroke-linecap:round;stroke-linejoin:round;}
	.st20{fill:none;stroke:#020202;stroke-width:3;stroke-miterlimit:10;}
	.st21{fill:none;stroke:#3B94EC;stroke-width:3;stroke-miterlimit:10;}
	.st22{fill:#3B94EC;stroke:#000000;stroke-width:3;stroke-miterlimit:10;}
	.st23{fill:#FCFCFC;}
	.st24{opacity:0.46;fill:#707070;}
	.st25{fill:#010200;}
	.st26{fill:#3B94EC;stroke:#010200;stroke-width:3;}
	.st27{fill:none;stroke:#FFFFFF;stroke-width:3;stroke-linecap:round;stroke-miterlimit:10;}
	.st28{fill:none;stroke:#3B94EC;stroke-width:3;stroke-linecap:round;stroke-miterlimit:10;}
	.st29{fill:none;stroke:#000000;stroke-width:3;stroke-linecap:round;}
	.st30{fill:#2281D1;}
	.st31{fill:#D8DBD7;stroke:#010200;stroke-width:3;}
	.st32{fill:#FFFFFF;stroke:#FFFFFF;stroke-width:3;stroke-linecap:round;stroke-linejoin:round;}
	.st33{fill:#E8F2FC;stroke:#000000;stroke-width:3;stroke-linecap:round;stroke-linejoin:round;}
	.st34{fill:none;}
	.st35{fill:#0C0CEF;}
	.st36{font-family:'MyriadPro-Regular';}
	.st37{font-size:60px;}
</style>
<g id="refs">
</g>
<g id="graph">
	<g>
		<path class="st0" d="M94.1,323.2l75.8,0.7c2.4,0,4.3-1.6,4.3-3.5l0.1-9.2c0-2-1.9-3.6-4.2-3.6l-115.9-1c-2.4,0-4.3-0.7-4.3,1.3
			l-0.1,11.4c0,2,1.9,3.6,4.2,3.6l6.7,0.1"/>
		<path class="st0" d="M179.4,330.2c0,1.9-1.5,3.5-3.3,3.5l-8.1-0.1c-1.8,0-3.2-1.6-3.2-3.5l0.1-15.9c0-1.9,1.5-3.5,3.3-3.5l8.1,0.1
			c1.8,0,3.2,1.6,3.2,3.5L179.4,330.2z"/>
		
			<ellipse transform="matrix(8.929240e-03 -1 1 8.929240e-03 -257.0023 407.8347)" class="st1" cx="77.2" cy="333.6" rx="13.9" ry="13.9"/>
		
			<ellipse transform="matrix(8.929240e-03 -1 1 8.929240e-03 -257.0023 407.8347)" class="st2" cx="77.2" cy="333.6" rx="13.9" ry="13.9"/>
		
			<ellipse transform="matrix(8.904873e-03 -1 1 8.904873e-03 -257.0007 407.8431)" class="st3" cx="77.2" cy="333.6" rx="5.2" ry="5.2"/>
		<path class="st1" d="M171.1,270.6c-2.7-4.8-7.6-13.1-17.4-13.1l-13.6-0.1c-5.5,0-10,4.4-10,9.9l-0.4,45c1.2,0,8.4-0.2,15.8,0.1
			c13,0.7,15,11.4,15,11.4l0,0.2l9,0.1c5.5,0,10-4.4,10-9.9c0,0,0.1-6.7,0.1-12.5C179.8,283.6,174.2,276.1,171.1,270.6z"/>
		<path class="st4" d="M171.1,270.6c-2.7-4.8-7.6-13.1-17.4-13.1l-13.6-0.1c-0.4,0-0.8,0-1.2,0.1l5.2,0c9.8,0.1,14.7,8.4,17.4,13.1
			c3.1,5.5,8.7,13.1,8.5,31c-0.1,5.9-0.1,12.5-0.1,12.5c0,5.1-3.9,9.2-8.8,9.8l8.4,0.1c5.5,0,10-4.4,10-9.9c0,0,0.1-6.7,0.1-12.5
			C179.8,283.6,174.2,276.1,171.1,270.6z"/>
		<path class="st3" d="M173.3,271.5c-0.3-0.6-0.7-1.1-0.9-1.6c-0.7-1.3-1.7-3.1-3-4.9h-28.7l-0.3,25.2l20.7,0.2l6,5.3l13.8,0
			C180,283,176,276.2,173.3,271.5z"/>
		<path class="st5" d="M172.3,269.9c-0.7-1.3-1.7-3.1-3-4.9h-11.3c1.5,2,2.7,3.9,3.6,5.6c2.8,4.9,7.4,11.4,8.3,25.2l11,0
			c-0.8-12.7-4.8-19.5-7.6-24.2C172.9,271,172.6,270.4,172.3,269.9z"/>
		<path class="st2" d="M171.1,270.6c-2.7-4.8-7.6-13.1-17.4-13.1l-13.6-0.1c-5.5,0-10,4.4-10,9.9l-0.4,45c1.2,0,8.4-0.2,15.8,0.1
			c13,0.7,15,11.4,15,11.4l0,0.2l9,0.1c5.5,0,10-4.4,10-9.9c0,0,0.1-6.7,0.1-12.5C179.8,283.6,174.2,276.1,171.1,270.6z"/>
		
			<ellipse transform="matrix(8.825284e-03 -1 1 8.825284e-03 -189.8012 476.8689)" class="st1" cx="145.6" cy="334.2" rx="13.9" ry="13.9"/>
		
			<ellipse transform="matrix(8.825284e-03 -1 1 8.825284e-03 -189.8012 476.8689)" class="st2" cx="145.6" cy="334.2" rx="13.9" ry="13.9"/>
		
			<ellipse transform="matrix(8.817540e-03 -1 1 8.817540e-03 -189.7991 476.8729)" class="st3" cx="145.6" cy="334.2" rx="5.2" ry="5.2"/>
		<path class="st1" d="M119.6,311l-74.4-0.6l0.5-59.3c0-4.9,4-8.8,8.9-8.7l56.8,0.4c4.9,0,8.8,4,8.7,8.9L119.6,311z"/>
		<path class="st4" d="M111.3,242.9l-56.8-0.4c-0.5,0-0.9,0-1.3,0.1l42.8,0.3c4.9,0,8.8,4,8.7,8.9l-0.5,59.2l15.3,0.1l0.5-59.3
			C120.1,246.9,116.2,242.9,111.3,242.9z"/>
		<path class="st2" d="M119.6,311l-74.4-0.6l0.5-59.3c0-4.9,4-8.8,8.9-8.7l56.8,0.4c4.9,0,8.8,4,8.7,8.9L119.6,311z"/>
		<path class="st0" d="M50.8,299.7c0,1.4-1,2.5-2.3,2.5l-6.4-0.1c-1.3,0-2.3-1.1-2.3-2.5l0-5c0-1.4,1-2.5,2.3-2.5l6.4,0.1
			c1.3,0,2.3,1.1,2.3,2.5L50.8,299.7z"/>
	</g>
	<g>
		<g>
			<g>
				<path class="st6" d="M416.6,264.4c-50.1,0-90.9,40.8-90.9,90.9s40.8,90.9,90.9,90.9c50.1,0,90.9-40.8,90.9-90.9
					S466.8,264.4,416.6,264.4z"/>
				<path class="st7" d="M416.6,264.4c-50.1,0-90.9,40.8-90.9,90.9s40.8,90.9,90.9,90.9c50.1,0,90.9-40.8,90.9-90.9
					S466.8,264.4,416.6,264.4z"/>
				<g>
					<path class="st7" d="M416.6,446.2c0,0-45.5-26.2-45.5-91.4c0-65.1,45.5-90.5,45.5-90.5"/>
				</g>
				<g>
					<path class="st7" d="M416.6,446.2c0,0,45.5-26.2,45.5-91.4c0-65.1-45.5-90.5-45.5-90.5"/>
				</g>
				<line class="st7" x1="333.2" y1="319.1" x2="500" y2="319.1"/>
				<line class="st7" x1="333.2" y1="391.5" x2="500" y2="391.5"/>
			</g>
		</g>
		<g>
			<path class="st1" d="M469.5,296.7c0-11.4,9.2-20.6,20.6-20.6c11.4,0,20.6,9.2,20.6,20.6c0,11.4-20.6,40.1-20.6,40.1
				S469.5,308.1,469.5,296.7z"/>
			<circle class="st3" cx="490.1" cy="295.8" r="7.9"/>
			<circle class="st8" cx="490.1" cy="295.8" r="7.9"/>
		</g>
		<g>
			<path class="st1" d="M315.4,338.4c0-11.4,9.2-20.6,20.6-20.6c11.4,0,20.6,9.2,20.6,20.6c0,11.4-20.6,40.1-20.6,40.1
				S315.4,349.8,315.4,338.4z"/>
			<circle class="st3" cx="336.1" cy="337.5" r="7.9"/>
			<circle class="st8" cx="336.1" cy="337.5" r="7.9"/>
		</g>
		<path class="st9" d="M490.1,336.8c2.9,7.3-1.2,32.1-16,31.3c-38.3-2.1-17.7-93.5-60.6-83.8c-24.8,5.6-18.7,46.5-8.2,61.2
			c10.5,14.8,44,77.1,12.7,77.3c-14.8,0.1-24.1-59.9-43.3-54.7c-16.7,4.5-19.7,54-38.6,10.4"/>
	</g>
	<g>
		<rect x="698.1" y="323.7" class="st5" width="12" height="27.1"/>
		<rect x="654.4" y="323.7" class="st5" width="9.9" height="27.1"/>
		<rect x="669.7" y="304.7" class="st5" width="9.9" height="19"/>
		<rect x="691.2" y="304.7" class="st5" width="6" height="19"/>
		<rect x="664.5" y="323.7" class="st8" width="45.6" height="23.4"/>
		<rect x="648.5" y="304.7" class="st8" width="31.1" height="19"/>
		<rect x="679.6" y="304.7" class="st8" width="18.5" height="19"/>
		<rect x="642.1" y="323.7" class="st8" width="22.4" height="23.4"/>
		<g>
			<path class="st1" d="M681.7,347.1h121.8c2.1,0,3.7,1.7,3.7,3.7v19.5c0,2.1-1.7,3.7-3.7,3.7H666c-2.7,0-5.2-1.1-7.1-3l-23.6-30.3
				c-1.3-1.3-0.4-3.6,1.5-3.6h31.7c1.8,0,3.5,0.7,4.8,1.9L681.7,347.1z"/>
		</g>
		<path class="st4" d="M653.9,340.8c-1.3-1.3-0.4-3.6,1.5-3.6h-18.7c-1.9,0-2.8,2.3-1.5,3.6l23.6,30.3c1.9,1.9,4.5,3,7.1,3h18.7
			c-2.7,0-5.2-1.1-7.1-3L653.9,340.8z"/>
		<g>
			<path class="st8" d="M681.7,347.1h121.8c2.1,0,3.7,1.7,3.7,3.7v19.5c0,2.1-1.7,3.7-3.7,3.7H666c-2.7,0-5.2-1.1-7.1-3l-23.6-30.3
				c-1.3-1.3-0.4-3.6,1.5-3.6h31.7c1.8,0,3.5,0.7,4.8,1.9L681.7,347.1z"/>
		</g>
		<circle class="st3" cx="669.3" cy="348.9" r="3.9"/>
		<g>
			<path class="st1" d="M727.5,347.1h71.3v-26.8h-65.9c-3,0-5.3,2.4-5.3,5.3V347.1z"/>
			<path class="st4" d="M757.2,320.3h-24.3c-3,0-5.3,2.4-5.3,5.3v21.4h24.3v-21.4C751.9,322.7,754.2,320.3,757.2,320.3z"/>
			<rect x="734.2" y="328.3" class="st3" width="12.3" height="18.8"/>
			<rect x="780.1" y="328.3" class="st10" width="9.6" height="9.6"/>
			<rect x="758.4" y="328.3" class="st10" width="9.6" height="9.6"/>
			<path class="st8" d="M727.5,347.1h71.3v-26.8h-65.9c-3,0-5.3,2.4-5.3,5.3V347.1z"/>
		</g>
	</g>
	<g>
		<path class="st11" d="M140.8,498.3c0.6,0.4,1.4,0.6,2.1,0.4c0,0,69.3-18.1,100.2-24.1c8.3-1.6,22-4.3,29.1-2.6
			c4.5,1.1,15,5,15.9,9.6c0.5,2.7-4,10.3-13.5,14.4c-12.4,5.4-66.3,21.7-111.9,26c-32.1,3-54.7-2.8-55.7-6.9
			c-0.8-3.3,8.5-7.2,8.5-7.2l-18.7-32.3c-0.5-0.9,0-2,1-2.2l2.8-0.6c1.3-0.3,2.7,0,3.7,0.8L140.8,498.3z"/>
		<path class="st1" d="M140.8,498.3c0.6,0.4,1.4,0.6,2.1,0.4c0,0,69.3-18.1,100.2-24.1c8.3-1.6,22-4.3,29.1-2.6
			c4.5,1.1,15,5,15.9,9.6c0.5,2.7-4,10.3-13.5,14.4c-12.4,5.4-66.3,21.7-111.9,26c-32.1,3-54.7-2.8-55.7-6.9
			c-0.8-3.3,8.5-7.2,8.5-7.2l-18.7-32.3c-0.5-0.9,0-2,1-2.2l2.8-0.6c1.3-0.3,2.7,0,3.7,0.8L140.8,498.3z"/>
		<path class="st4" d="M288.2,481.6c-0.4-2.2-3.1-4.3-6.3-6c0,0.1,0.1,0.2,0.1,0.2c0.5,2.7-4,10.3-13.5,14.4
			c-12.4,5.4-66.3,21.7-111.9,26c-22.3,2.1-40-0.1-49.1-3c-0.4,0.6-0.5,1.2-0.4,1.8c1,4.1,23.6,10,55.7,6.9
			c45.6-4.3,99.5-20.6,111.9-26C284.1,491.9,288.7,484.3,288.2,481.6z"/>
		<path class="st3" d="M289.3,479.7c-1.5-2.8-5.3-5.1-8.9-6.7c-5.2,1-14.5,2.5-18.2,3.2c0,0,6.7,7.9,13.8,6.4L289.3,479.7z"/>
		<path class="st5" d="M280.4,473c-2.7,0.5-6.5,1.2-10.1,1.8c3.5,1.7,7.8,4.5,9.1,7.1l-3.4,0.8c0,0,0,0,0.1,0l13.2-2.9
			C287.8,476.9,284,474.6,280.4,473z"/>
		<path class="st4" d="M141.5,507.6l-19.3,8.4l2.8,5.6c3.1,0.5,6.7,0.8,10.5,1L141.5,507.6z"/>
		<path class="st4" d="M228.6,495.7l-20.6,7.5L185.9,516l1.1,2.9c12.7-2.1,25.4-4.8,37-7.6L228.6,495.7z"/>
		<path class="st8" d="M140.8,498.3c0.6,0.4,1.4,0.6,2.1,0.4c0,0,69.3-18.1,100.2-24.1c8.3-1.6,22-4.3,29.1-2.6
			c4.5,1.1,15,5,15.9,9.6c0.5,2.7-4,10.3-13.5,14.4c-12.4,5.4-66.3,21.7-111.9,26c-32.1,3-54.7-2.8-55.7-6.9
			c-0.8-3.3,8.5-7.2,8.5-7.2l-18.7-32.3c-0.5-0.9,0-2,1-2.2l2.8-0.6c1.3-0.3,2.7,0,3.7,0.8L140.8,498.3z"/>
		<g>
			<path class="st1" d="M160.5,512.2l-23.9,31.9c0,0-0.3,0.2-0.2,0.4c0,0,0.1,0.1,0.1,0c24.2-4.2,34.9-11.6,90.4-47.3
				c0.5-0.3,0.7-1,0.5-1.6c-0.2-0.6-0.9-0.9-1.5-0.7C193.8,503.3,174,508.5,160.5,512.2z"/>
		</g>
		<g>
			<path class="st8" d="M160.5,512.2l-23.9,31.9c0,0-0.3,0.2-0.2,0.4c0,0,0.1,0.1,0.1,0c24.2-4.2,34.9-11.6,90.4-47.3
				c0.5-0.3,0.7-1,0.5-1.6c-0.2-0.6-0.9-0.9-1.5-0.7C193.8,503.3,174,508.5,160.5,512.2z"/>
		</g>
		<g>
			<path class="st1" d="M120.3,512.6l-8.6,11.5c0,0-0.1,0.1-0.1,0.1c0,0,0,0,0,0c8.1-1.4,12-3.8,28.5-14.4c0.5-0.3,0.7-1,0.5-1.6
				c-0.2-0.6-0.9-0.9-1.5-0.7C130.3,509.9,124.5,511.5,120.3,512.6z"/>
		</g>
		<g>
			<path class="st8" d="M120.3,512.6l-8.6,11.5c0,0-0.1,0.1-0.1,0.1c0,0,0,0,0,0c8.1-1.4,12-3.8,28.5-14.4c0.5-0.3,0.7-1,0.5-1.6
				c-0.2-0.6-0.9-0.9-1.5-0.7C130.3,509.9,124.5,511.5,120.3,512.6z"/>
		</g>
	</g>
	<g>
		<polygon class="st3" points="590.1,375.2 573.7,362.9 557.3,375.2 540.9,362.9 524.5,375.2 524.5,426.3 540.9,415.8 557.3,426.3 
			573.7,415.8 590.1,426.3 606.5,415.8 606.5,362.9 		"/>
		<polygon class="st5" points="557.1,426.1 557.1,375 540.9,362.9 540.9,415.8 		"/>
		<polygon class="st5" points="589.9,426.1 589.9,375 573.7,362.9 573.7,415.8 		"/>
		<polygon class="st12" points="590.1,375.2 573.7,362.9 557.3,375.2 540.9,362.9 524.5,375.2 524.5,426.3 540.9,415.8 557.3,426.3 
			573.7,415.8 590.1,426.3 606.5,415.8 606.5,362.9 		"/>
		<g>
			<polyline class="st8" points="524.5,402.1 540.9,389.8 557.3,402.1 573.7,389.8 590.1,402.1 606.5,389.7 			"/>
		</g>
	</g>
	<path class="st10" d="M392.1,513.3v-10.5h-20.9v10.5c0,5.2,3.8,9.6,9,10.3v10h-6.1c-0.8,0-1.5,0.7-1.5,1.5s0.7,1.5,1.5,1.5h15.2
		c0.8,0,1.5-0.7,1.5-1.5s-0.7-1.5-1.5-1.5h-6.1v-10C388.3,522.9,392.1,518.5,392.1,513.3z"/>
	<path class="st10" d="M816.9,390.7c-7.7,0-13.9,6.2-13.9,13.9v1.5h12.8v12.4c0,1.5-1.2,2.7-2.7,2.7s-2.7-1.2-2.7-2.7V418
		c0-0.8-0.7-1.5-1.5-1.5c-0.8,0-1.5,0.7-1.5,1.5v0.4c0,3.1,2.5,5.7,5.7,5.7c3.1,0,5.7-2.5,5.7-5.7V406h12v-1.5
		C830.8,396.9,824.5,390.7,816.9,390.7z"/>
	<g>
		<rect x="529.6" y="529.6" class="st5" width="11.2" height="15.5"/>
		<rect x="546" y="520.3" class="st4" width="11.2" height="25"/>
		<rect x="562.4" y="504.4" class="st5" width="11.2" height="40.7"/>
		<rect x="578.5" y="508.9" class="st4" width="11.2" height="36.3"/>
		<rect x="594.9" y="493.2" class="st5" width="11.2" height="51.7"/>
	</g>
	<g>
		<ellipse class="st5" cx="684" cy="268" rx="21.1" ry="21.1"/>
		<path class="st13" d="M677.4,274.3c0,2.6,2,5,5.4,5h2.4c7,0,8.1-10.9,0-10.8l-2.4-0.2c-7.1,0.1-7.2-10.8,0-10.8h2.4
			c3.6,0,5.6,2.3,5.6,5"/>
		<line class="st13" x1="684" y1="252.7" x2="684" y2="283.7"/>
	</g>
	<g>
		<g>
			<g>
				<g>
					<g>
						<path class="st14" d="M217.8,375.4h44.1c2.8,0,5-2.3,5-5v-37.6h-54.1v37.6C212.8,373.2,215,375.4,217.8,375.4z"/>
						<path class="st15" d="M266.9,326.3c0-2.8-2.3-5-5-5h-44.1c-2.8,0-5,2.2-5,5v6.5h54.1V326.3z"/>
					</g>
				</g>
			</g>
			<g>
				<path class="st14" d="M228.2,345.7c4.9-4.6,11.4,1.6,7.1,5.6c-2.4,2.3-8.6,2.8-8.6,7.4l2.4,0.1h7.6"/>
				<path class="st14" d="M242.1,344.3h9.2v2.7c-3.4,3.9-6.7,8.3-7.1,11.9"/>
			</g>
		</g>
		<g>
			<path class="st15" d="M261.9,375.4c2.8,0,5-2.3,5-5v-9.7l-14.8,14.8H261.9z"/>
		</g>
		<path class="st16" d="M257.6,360c-3.2,0-5.8,2.6-5.8,5.8v7.9h0.2l13.6-13.6V360H257.6z"/>
	</g>
	<g>
		<path class="st17" d="M733.8,554.4c-2.6,0-4.8-2.1-4.8-4.8l0-90.1c0-2.6,2.1-4.8,4.8-4.8l64.4,0c2.6,0,4.8,2.1,4.8,4.8l0,90.1
			c0,2.6-2.1,4.8-4.8,4.8L733.8,554.4z"/>
		<rect x="735.6" y="463.6" class="st1" width="60.9" height="81.6"/>
		<path class="st18" d="M780.2,451.3l-7.1,0c0-3.9-3.2-7.1-7.1-7.1c-3.9,0-7.1,3.2-7.1,7.1h-7.1l-5.9,0c-1.5,0-2.8,1.2-2.8,2.8
			l0,9.3c0,2.6,2.1,4.7,4.7,4.7l36.4,0c2.6,0,4.7-2.1,4.7-4.7V454c0-1.5-1.2-2.8-2.8-2.8H780.2z"/>
		<g>
			<line class="st19" x1="759.4" y1="483.6" x2="789" y2="483.6"/>
			<line class="st19" x1="759.4" y1="514.5" x2="789" y2="514.5"/>
			<line class="st19" x1="759.4" y1="529.9" x2="789" y2="529.9"/>
			<g>
				<line class="st19" x1="759.6" y1="499" x2="789" y2="499"/>
			</g>
			<polyline class="st13" points="743.2,482.3 746.8,486.7 753.6,476.7 			"/>
			<polyline class="st13" points="743.2,501.5 746.8,505.9 753.6,496 			"/>
			<polyline class="st13" points="743.2,529.4 746.8,533.8 753.6,523.8 			"/>
		</g>
	</g>
	<g>
		<circle class="st1" cx="305.3" cy="531.4" r="22.1"/>
		<circle class="st20" cx="305.3" cy="531.4" r="22.1"/>
		<circle class="st3" cx="305.3" cy="531.4" r="15.4"/>
		<path class="st21" d="M300.3,527.3c2-1,3.6-2.2,4.8-3.6h1.1v15.5"/>
	</g>
	<g>
		<ellipse class="st1" cx="49.7" cy="516" rx="21.2" ry="21.2"/>
		<path class="st13" d="M43,522.4c0,2.7,2,5.1,5.4,5.1h2.4c7,0,8.1-11,0-10.9l-2.4-0.2c-7.1,0.1-7.2-10.8,0-10.9h2.4
			c3.6,0,5.6,2.4,5.6,5.1"/>
		<line class="st13" x1="49.7" y1="500.6" x2="49.7" y2="531.9"/>
	</g>
	<g>
		<path class="st10" d="M455.4,545.7c1.4-0.3,2.8-0.7,4.1-1.3c0.8-0.4,1.9-0.2,2.5,0.4c1.2,1.3,3.2,1.4,4.5,0.2l0.1-0.1
			c1.3-1.2,1.4-3.1,0.2-4.4c-0.6-0.7-0.6-1.6-0.2-2.4c0.8-1.3,1.5-2.6,2-4.1c0.3-0.8,1.1-1.3,2-1.3c1.7,0.1,3.2-1.3,3.3-3l0-0.3
			c0.1-1.7-1.2-3.1-2.9-3.2c-0.9,0-1.6-0.7-1.8-1.6c-0.3-1.5-0.8-2.9-1.4-4.2c-0.4-0.8-0.3-1.9,0.4-2.5c1.3-1.2,1.4-3.1,0.2-4.4
			l-0.2-0.2c-1.1-1.3-3.1-1.4-4.4-0.2c-0.6,0.6-1.6,0.7-2.3,0.2c-1.2-0.8-2.5-1.4-3.9-1.9c-0.9-0.3-1.6-1.1-1.5-2.1
			c0.1-1.8-1.3-3.3-3-3.3l-0.1,0c-1.8-0.1-3.2,1.3-3.3,3c0,0.9-0.7,1.7-1.5,1.8c-1.4,0.3-2.8,0.8-4.1,1.4c-0.9,0.4-1.9,0.2-2.5-0.5
			c-1.2-1.3-3.3-1.4-4.6-0.2c-1.3,1.2-1.4,3.3-0.2,4.6c0.7,0.7,0.6,1.8,0.1,2.7c-0.7,1.1-1.2,2.3-1.7,3.5c-0.3,0.9-1.3,1.5-2.3,1.5
			c-1.8-0.1-3.3,1.3-3.4,3.1c-0.1,1.8,1.4,3.3,3.2,3.4c1,0,1.7,0.8,2,1.8c0.3,1.2,0.7,2.4,1.2,3.5c0.4,1,0.3,2.1-0.5,2.8
			c-1.3,1.2-1.4,3.3-0.2,4.6c1.2,1.3,3.3,1.4,4.6,0.2c0.7-0.7,1.8-0.6,2.7-0.1c1.1,0.7,2.3,1.3,3.5,1.7c0.9,0.3,1.5,1.2,1.5,2.2
			c-0.1,1.8,1.3,3.3,3.2,3.4c1.8,0.1,3.3-1.3,3.4-3.1C453.9,546.7,454.5,545.9,455.4,545.7z M451.6,534.9c-3.7-0.2-6.4-3.4-6.2-7
			c0.2-3.6,3.4-6.4,7-6.2c3.7,0.2,6.4,3.4,6.2,7C458.4,532.3,455.2,535.1,451.6,534.9z"/>
		<path class="st22" d="M511.9,508.9c-0.5-0.9-0.3-2.1,0.6-2.8c1.1-0.8,2-1.8,2.9-2.7c0.8-0.8,2-1,2.9-0.4l1.6,1
			c1.5,0.9,3.5,0.5,4.5-1.1c0.9-1.5,0.5-3.5-1.1-4.5l-1.6-1c-0.9-0.6-1.3-1.7-0.9-2.7c0.5-1.3,0.9-2.5,1.2-3.9
			c0.3-1.1,1.2-1.9,2.3-1.9l1.7,0c1.8,0,3.3-1.4,3.4-3.2c0-1.8-1.4-3.3-3.2-3.3l-1.6,0c-1.1,0-2-0.8-2.1-1.9c-0.2-1.4-0.5-2.7-0.9-4
			c-0.3-1.1,0.1-2.3,1.1-2.8l1.2-0.7c1.6-0.9,2.2-2.8,1.3-4.4c-0.9-1.6-2.8-2.2-4.4-1.3l-1.1,0.6c-1,0.5-2.2,0.2-2.8-0.7
			c-0.9-1.1-1.8-2.2-2.8-3.1c-0.8-0.8-1.1-2-0.5-3l0.6-0.9c0.9-1.5,0.5-3.5-1.1-4.5c-1.5-0.9-3.5-0.5-4.5,1.1l-0.5,0.8
			c-0.6,1-1.8,1.2-2.9,0.8c-1.4-0.5-2.8-1-4.3-1.3c-1-0.2-1.8-1.2-1.7-2.3l0-0.8c0-1.8-1.4-3.3-3.2-3.3c-1.8,0-3.3,1.4-3.4,3.2
			l0,0.8c0,1.1-0.9,2-2.1,2.2c-1.5,0.2-2.9,0.6-4.4,1c-1,0.3-2.2-0.1-2.7-1.1l-0.4-0.6c-0.9-1.6-2.8-2.2-4.4-1.3
			c-1.6,0.9-2.2,2.8-1.3,4.4l0.4,0.6c0.5,1,0.3,2.1-0.6,2.8c-1.2,1-2.4,2.1-3.4,3.3c-0.7,0.8-1.9,0.9-2.8,0.4l-0.7-0.4
			c-1.5-0.9-3.5-0.5-4.5,1.1c-0.9,1.5-0.5,3.5,1.1,4.5l0.7,0.4c1,0.6,1.3,1.8,0.9,2.9c-0.5,1.4-0.9,2.8-1.2,4.3
			c-0.2,1.1-1.2,1.8-2.2,1.7l-1,0c-1.8-0.1-3.3,1.4-3.3,3.2c0,1.8,1.4,3.3,3.2,3.3l1.1,0c1.1,0,2,0.9,2.2,2c0.3,1.4,0.6,2.8,1.1,4.2
			c0.4,1-0.1,2.1-1,2.6l-1.1,0.6c-1.6,0.9-2.2,2.8-1.3,4.4c0.9,1.6,2.8,2.2,4.4,1.3l1.2-0.7c1-0.5,2.2-0.3,2.9,0.6
			c0.9,1.1,1.9,2,2.9,2.9c0.8,0.7,1.1,1.9,0.5,2.9l-0.8,1.4c-0.9,1.5-0.5,3.5,1.1,4.5c1.5,0.9,3.5,0.5,4.5-1.1l0.9-1.5
			c0.6-0.9,1.7-1.3,2.7-1c1.3,0.5,2.6,0.8,3.9,1.1c1.1,0.2,1.9,1.2,1.9,2.3l0,1.8c0,1.8,1.4,3.3,3.2,3.3c1.8,0,3.3-1.4,3.3-3.2
			l0-1.9c0-1.1,0.8-2,1.8-2.2c1.3-0.2,2.6-0.5,3.9-0.9c1.1-0.3,2.3,0,2.8,1l0.9,1.7c0.9,1.6,2.8,2.2,4.4,1.3
			c1.6-0.9,2.2-2.8,1.3-4.4L511.9,508.9z M499.7,493.6c-5,2.7-11.2,0.8-13.9-4.1c-2.7-5-0.8-11.2,4.1-13.9c5-2.7,11.2-0.8,13.9,4.1
			C506.5,484.7,504.7,490.9,499.7,493.6z"/>
	</g>
	<g>
		<g>
			<path class="st10" d="M154.8,384.3c0-2.6-2-4.7-4.5-5c-0.3-4.9-4.4-8.8-9.3-8.8c-4.2,0-7.8,2.8-8.9,6.6c-3.1,0.3-5.5,2.9-5.5,6
				c0,3.4,2.7,6.1,6.1,6.1c0,0,0,0,0,0v0h17.2l0,0C152.6,389.2,154.8,387,154.8,384.3z"/>
		</g>
	</g>
	<g>
		<path class="st1" d="M278.4,422.8c-2.8-0.1-5.1,2.1-5.2,4.8c-0.1,2.8,2,5.1,4.8,5.2c2.8,0.1,5.1-2,5.2-4.8
			C283.4,425.3,281.2,422.9,278.4,422.8z"/>
		<path class="st1" d="M278.8,414.9c-3.8-0.2-7.5,1.3-10.1,4.2c-0.8,0.9-0.5,2.3,0.6,2.9c1,0.7,2.4,0.4,3.3-0.5
			c1.6-1.5,3.7-2.3,6-2.2c2.1,0.1,3.9,0.9,5.3,2.2c0.9,0.9,2.3,1.2,3.3,0.5c1.1-0.7,1.4-2.1,0.5-3
			C285.5,416.7,282.4,415.1,278.8,414.9z"/>
		<path class="st1" d="M279.1,407.3c-6.5-0.3-12.5,2.6-16.3,7.4c-0.8,1-0.5,2.4,0.6,3c1.1,0.7,2.4,0.3,3.2-0.6
			c3-3.5,7.4-5.6,12.3-5.3c4.4,0.2,8.4,2.2,11,5.4c0.8,1,2.2,1.3,3.2,0.7c1-0.7,1.4-2.1,0.6-3C290.4,410.4,285.1,407.6,279.1,407.3z
			"/>
		<path class="st1" d="M279.4,399.8c-9.1-0.4-17.3,3.8-22.5,10.6c-0.8,1-0.5,2.4,0.6,3.1c1.1,0.7,2.4,0.3,3.2-0.6
			c4.3-5.4,11-8.8,18.5-8.5c6.8,0.3,12.8,3.6,16.6,8.6c0.8,1,2.1,1.3,3.2,0.6c1-0.7,1.4-2,0.7-3C295,404.2,287.7,400.1,279.4,399.8z
			"/>
	</g>
	<g>
		<polygon class="st4" points="118.3,422 113.2,417 113.2,415.4 118.3,410.4 108.2,410.4 103.2,415.4 103.2,417 108.2,422 		"/>
		<circle class="st1" cx="62.8" cy="416.3" r="37"/>
		<path class="st23" d="M31.1,416.3c0,17.5,14.2,31.7,31.7,31.7c17.5,0,31.7-14.2,31.7-31.7c0-17.5-14.2-31.7-31.7-31.7
			C45.3,384.5,31.1,398.7,31.1,416.3z"/>
		<path class="st1" d="M36.4,416.3c0,14.6,11.8,26.4,26.4,26.4c14.6,0,26.4-11.8,26.4-26.4c0-14.6-11.8-26.4-26.4-26.4
			C48.3,389.9,36.4,401.7,36.4,416.3z"/>
		<ellipse class="st23" cx="63" cy="416.1" rx="21" ry="21"/>
		<path class="st1" d="M46.9,416.1c0,8.9,7.2,16.1,16.1,16.1s16.1-7.2,16.1-16.1c0-8.9-7.2-16.1-16.1-16.1S46.9,407.2,46.9,416.1z"
			/>
		<ellipse class="st23" cx="63" cy="416.1" rx="11" ry="11"/>
		<path class="st1" d="M56.6,416.1c0,3.5,2.9,6.4,6.4,6.4c3.5,0,6.4-2.9,6.4-6.4c0-3.5-2.9-6.4-6.4-6.4
			C59.5,409.7,56.6,412.6,56.6,416.1z"/>
		<polygon class="st24" points="66.1,414.9 91.3,440.2 89.9,441.6 65.1,416.9 		"/>
		<path class="st25" d="M64.5,416.1c0,0.6,0.5,1.1,1.1,1.1h47.7V415H65.6C65,415,64.5,415.5,64.5,416.1z"/>
	</g>
	<g>
		<g>
			<path class="st26" d="M640,459.9c-2,2-5.3,2-7.3-0.1l-20.5-20.5c-1.6-1.6-1.8-3.2-0.4-4.6l2.8-2.8c1.8-1.8,3.4-1.6,5,0l20.5,20.5
				c2,2,2.1,5.3,0.1,7.3L640,459.9z"/>
			<g>
				<g>
					<circle class="st14" cx="599.5" cy="418.9" r="28"/>
					<circle class="st1" cx="599.5" cy="418.9" r="20.4"/>
					<g>
						<path class="st3" d="M587,417.6c-0.1,0.7-0.7,1.3-1.4,1.3c-0.7,0-1.3-0.6-1.2-1.4c0.7-7.3,6.5-13.2,13.9-13.8
							c0.7-0.1,1.3,0.5,1.3,1.3c0,0.7-0.6,1.3-1.4,1.4C592.2,407,587.6,411.7,587,417.6z"/>
					</g>
				</g>
			</g>
		</g>
	</g>
	<g>
		<path class="st1" d="M341.2,454H372c1.6,0,2.9,1,3.4,2.4l-15.8,13.1c-1.7,1.4-4.3,1.4-6,0l-15.8-13.1
			C338.3,455,339.7,454,341.2,454z"/>
		<path class="st1" d="M372,478.5h-30.8c-2,0-3.6-1.6-3.6-3.6v-14.6l14,11.6c1.4,1.2,3.2,1.8,5,1.8c1.8,0,3.5-0.6,5-1.8l14-11.6
			v14.6C375.7,476.9,374,478.5,372,478.5z"/>
	</g>
	<g>
		<rect x="753" y="239.4" class="st1" width="63.9" height="47.4"/>
		<rect x="753" y="239.4" class="st4" width="63.9" height="14.4"/>
		<rect x="749.1" y="230.2" class="st1" width="71.7" height="11.9"/>
		<g>
			<path class="st27" d="M778.5,276c-11.7-5.9-9.8-23.5,3.3-26.5c10.6-2.4,20,7.6,16.7,18.1c-1,3.3-3.3,6.2-6.5,8.1"/>
			<polyline class="st27" points="797.8,277.5 791.6,276 793.1,269.8 			"/>
		</g>
	</g>
	<g>
		<path class="st10" d="M278.3,290.1c0-1.9,0.4-3.3,1.1-4.3c0.8-1,1.6-1.7,2.6-2.1c1-0.3,1.8-0.5,2.6-0.5c1.6,0,3.1,0.5,4.4,1.6
			c1.3,1.1,2,2.8,2,5.3c0,1-0.2,2.1-0.6,3.1c-0.4,1-1.1,1.9-2,2.7c-1,0.8-2.2,1.1-3.8,1.1c-0.7,0-1.4-0.1-2.2-0.3
			c-0.7-0.2-1.4-0.6-2-1.1c-0.6-0.5-1.2-1.3-1.5-2.2C278.5,292.5,278.3,291.4,278.3,290.1z M281.9,290.1c0,1.5,0.3,2.5,0.8,3.2
			c0.6,0.7,1.2,1,1.9,1c0.7,0,1.3-0.3,1.9-1c0.6-0.7,0.8-1.7,0.8-3.2c0-1.1-0.2-1.9-0.5-2.5c-0.3-0.6-0.6-1-1.1-1.3
			c-0.4-0.2-0.8-0.4-1.2-0.4c-0.4,0-0.8,0.1-1.2,0.4c-0.4,0.2-0.8,0.7-1.1,1.3C282.1,288.2,281.9,289.1,281.9,290.1z M283.4,307.9
			l15.4-24.2h5.5L289,307.9H283.4z M297.4,301.4c0-2.4,0.7-4.2,2-5.3c1.3-1.1,2.8-1.6,4.4-1.6c1.6,0,3.1,0.5,4.4,1.6
			c1.3,1.1,2,2.9,2,5.3c0,1.7-0.3,3.1-1,4.1c-0.7,1-1.5,1.8-2.5,2.2c-1,0.4-1.9,0.6-2.9,0.6c-1,0-1.9-0.2-2.9-0.6
			c-1-0.4-1.8-1.2-2.5-2.2C297.7,304.5,297.4,303.1,297.4,301.4z M301,301.4c0,1.4,0.3,2.4,0.8,3.1c0.5,0.7,1.2,1,1.9,1
			c0.4,0,0.8-0.1,1.2-0.4c0.4-0.2,0.8-0.7,1.1-1.3c0.3-0.6,0.4-1.5,0.4-2.5c0-1.5-0.3-2.5-0.8-3.2c-0.6-0.7-1.2-1-1.9-1
			c-0.8,0-1.4,0.4-1.9,1.1C301.3,299,301,300.1,301,301.4z"/>
	</g>
	<g>
		<path class="st28" d="M216.8,274.6c-19.5-9.9-16.4-39.2,5.4-44.2c17.6-4,33.4,12.6,27.9,30.2c-1.7,5.5-5.4,10.3-10.8,13.5"/>
		<polyline class="st28" points="249.4,275.5 238.7,274.5 239.7,263.8 		"/>
		<path class="st28" d="M219.8,259.7c0,3.1,2.3,5.9,6.3,5.9h2.8c8.1,0,9.4-12.7,0-12.6l-2.8-0.3c-8.2,0.1-8.3-12.5,0-12.6h2.8
			c4.2,0,6.5,2.7,6.5,5.9"/>
		<line class="st28" x1="227.5" y1="234.6" x2="227.5" y2="270.6"/>
	</g>
	<g>
		<g>
			<path class="st1" d="M667.5,520h-13.8v-2.1l5.5-5.6c1.7-1.7,2.8-2.9,3.3-3.7c0.5-0.7,0.9-1.4,1.2-2.1c0.3-0.7,0.4-1.4,0.4-2.2
				c0-1.1-0.3-2-1-2.7c-0.7-0.7-1.6-1-2.8-1c-0.9,0-1.7,0.1-2.5,0.4c-0.8,0.3-1.7,0.8-2.6,1.6l-1.3-1.6c1.9-1.6,4-2.4,6.3-2.4
				c2,0,3.5,0.5,4.6,1.5c1.1,1,1.7,2.4,1.7,4.1c0,1.3-0.4,2.7-1.1,4c-0.7,1.3-2.1,3-4.2,4.9l-4.6,4.5v0.1h10.8V520z"/>
			<path class="st1" d="M683.3,515.1h-3.1v4.9h-2.3v-4.9h-10.3V513l10.1-14.3h2.6v14.3h3.1V515.1z M677.9,512.9v-7
				c0-1.4,0-2.9,0.1-4.7h-0.1c-0.5,0.9-0.9,1.7-1.3,2.3l-6.6,9.4H677.9z"/>
		</g>
		<path class="st28" d="M655.6,533.1c-21.6-10.9-18.1-43.4,6-48.9c19.5-4.5,36.9,14,30.8,33.4c-1.9,6.1-6,11.4-11.9,14.9"/>
		<polyline class="st28" points="688.6,534.3 679.5,533.4 680.4,524.4 		"/>
	</g>
	<g>
		<path class="st14" d="M549.9,309h51.3c3.2,0,5.9-2.6,5.9-5.9v-43.7h-63v43.7C544,306.4,546.6,309,549.9,309z"/>
		<path class="st15" d="M607,251.9c0-3.2-2.6-5.9-5.9-5.9h-51.3c-3.2,0-5.9,2.6-5.9,5.9v7.6h63V251.9z"/>
		<g>
			<rect x="552" y="268" class="st5" width="15.6" height="15.6"/>
			<line class="st29" x1="574.3" y1="268" x2="599" y2="268"/>
			<line class="st29" x1="574.3" y1="274.1" x2="599" y2="274.1"/>
			<line class="st29" x1="574.3" y1="280.2" x2="599" y2="280.2"/>
			<rect x="552" y="292.8" class="st5" width="47" height="7.6"/>
		</g>
		<g>
			<circle class="st3" cx="551.7" cy="252.4" r="2.8"/>
			<circle class="st3" cx="560.3" cy="252.4" r="2.8"/>
			<circle class="st3" cx="568.9" cy="252.4" r="2.8"/>
		</g>
	</g>
	<path class="st16" d="M750.1,407.3c0,1.1,0.5,2,1.3,2.6l0,0c0.2,0.2,0.4,0.5,0.4,0.8c0,0.4-0.3,0.7-0.6,0.9h-8.9h0v8.6
		c-0.1,0.5-0.5,0.9-1,0.9c-0.3,0-0.6-0.1-0.8-0.4h0c-0.6-0.8-1.5-1.3-2.7-1.3c-1.9,0-3.5,1.6-3.5,3.5c0,1.9,1.5,3.5,3.5,3.5
		c1.1,0,2-0.5,2.7-1.3h0c0.2-0.2,0.5-0.4,0.8-0.4c0.5,0,0.9,0.4,1,0.9v8.6h0v0h8.5c0.5,0,1-0.4,1-1c0-0.3-0.2-0.6-0.4-0.8l0,0
		c-0.8-0.7-1.3-1.5-1.3-2.6c0-1.9,1.6-3.4,3.5-3.4c1.9,0,3.5,1.5,3.5,3.4c0,1.1-0.5,2-1.3,2.6v0c-0.2,0.2-0.4,0.5-0.4,0.8
		c0,0.5,0.4,1,1,1h8.5v0h0l0,0v-8.6c0.1-0.5,0.5-0.9,1-0.9c0.3,0,0.6,0.2,0.8,0.4h0c0.6,0.8,1.5,1.3,2.7,1.3c1.9,0,3.4-1.6,3.4-3.5
		c0-1.9-1.5-3.5-3.4-3.5c-1.2,0-2,0.5-2.7,1.3h0c-0.2,0.2-0.5,0.4-0.8,0.4c-0.5,0-0.9-0.4-1-0.9v-8.5v-0.1h0h-8.9
		c-0.4-0.1-0.6-0.5-0.6-0.9c0-0.3,0.2-0.6,0.4-0.8l0,0c0.8-0.6,1.3-1.5,1.3-2.6c0-1.9-1.6-3.4-3.5-3.4
		C751.6,403.9,750.1,405.4,750.1,407.3z"/>
	<g>
		<g>
			<path class="st30" d="M688.2,398.8l4.1-4.3c-0.2-0.4-0.2-0.8-0.2-1.2c0-1.6,1.3-3,2.8-3c1.6,0,2.8,1.3,2.8,3c0,1.6-1.3,3-2.8,3
				c-0.4,0-0.8-0.1-1.1-0.3l-2.6,2.8H688.2z"/>
			<path class="st30" d="M691,398.8l-4.1-4.3c0.2-0.4,0.2-0.8,0.2-1.2c0-1.6-1.3-3-2.8-3c-1.6,0-2.8,1.3-2.8,3c0,1.6,1.3,3,2.8,3
				c0.4,0,0.8-0.1,1.1-0.3l2.6,2.8H691z"/>
		</g>
		<path class="st31" d="M710.7,424.5l-4.2-24.8h-34.8l-4.5,24.8c-0.6,4.1,2.3,7.8,6.3,7.8h27h3.9
			C708.3,432.3,711.3,428.6,710.7,424.5z"/>
		<path class="st30" d="M708.5,399.3c0,1.1-0.8,1.9-1.8,1.9h-35.2c-1,0-1.8-0.9-1.8-1.9c0-1.1,0.8-1.9,1.8-1.9h35.2
			C707.7,397.3,708.5,398.2,708.5,399.3z"/>
	</g>
	<g>
		<g>
			<path class="st4" d="M209.2,428.6c0-9.3-7.5-16.8-16.8-16.8c-9.3,0-16.8,7.5-16.8,16.8c0,5.7,2.9,10.8,7.3,13.8
				c0.7,0.5,1.1,1.2,1.1,2v5.6c0,2.5,2,2.3,4.5,2.3h7.8c2.5,0,4.5,0.2,4.5-2.3v-5.6c0-0.8,0.5-1.6,1.1-2
				C206.3,439.4,209.2,434.3,209.2,428.6z"/>
			<line class="st32" x1="195.9" y1="435.6" x2="195.9" y2="447.9"/>
			<line class="st32" x1="188.7" y1="434.5" x2="188.7" y2="447.9"/>
			<g>
				<path class="st27" d="M188.5,434.4c-0.7,0.5-1.5,0.8-2.4,0.8c-2.1,0-3.9-1.7-3.9-3.9c0-2.1,1.7-3.9,3.9-3.9
					c2.2,0,3.8,1.5,6.1,3.9c2.5,2.6,3.9,3.9,6,3.9c2.1,0,3.9-1.7,3.9-3.9c0-2.1-1.7-3.9-3.9-3.9c-0.9,0-1.7,0.3-2.4,0.8"/>
			</g>
			<path class="st4" d="M197,456c0,2.7-2.2,4.9-4.9,4.9c-2.7,0-4.9-2.2-4.9-4.9c0-2.7,2.2-2.7,4.9-2.7
				C194.9,453.4,197,453.4,197,456z"/>
			<path class="st14" d="M184,446.3v5.2c0,1.8,1.4,3.2,3.2,3.2h10.4c1.8,0,3.2-1.4,3.2-3.2v-5.2H184z"/>
		</g>
		<g>
			<g>
				<line class="st33" x1="159.1" y1="429" x2="167" y2="429"/>
				<line class="st33" x1="217.8" y1="429" x2="225.8" y2="429"/>
			</g>
			<g>
				<line class="st33" x1="168.8" y1="452.6" x2="174.5" y2="446.9"/>
				<line class="st33" x1="210.4" y1="411" x2="216" y2="405.4"/>
			</g>
			<g>
				<line class="st33" x1="192.4" y1="403.6" x2="192.4" y2="395.6"/>
			</g>
			<g>
				<line class="st33" x1="216" y1="452.6" x2="210.4" y2="446.9"/>
				<line class="st33" x1="174.5" y1="411" x2="168.8" y2="405.4"/>
			</g>
		</g>
	</g>
</g>
<g id="text">
	<g>
		<rect x="295.3" y="144" class="st34" width="357.6" height="60.5"/>
		<text transform="matrix(1 0 0 1 295.29 186.5997)" class="st35 st36 st37">Logistica</text>
	</g>
</g>
</svg>
