<?xml version="1.0" encoding="utf-8"?>
<!-- Generator: Adobe Illustrator 27.5.0, SVG Export Plug-In . SVG Version: 6.00 Build 0)  -->
<svg version="1.1" id="Layer_1" xmlns="http://www.w3.org/2000/svg" xmlns:xlink="http://www.w3.org/1999/xlink" x="0px" y="0px"
	 viewBox="0 0 2122 2122" style="enable-background:new 0 0 2122 2122;" xml:space="preserve">
<g>
	<rect style="fill:#FAFAFA;" width="2121.32" height="2121.32"/>
	<g style="opacity:0.3;">
		<polygon style="fill:#FFFFFF;" points="1879.054,1713.367 509.884,1713.367 638.768,934.692 2007.939,934.692 		"/>
		<polygon style="fill:#F7FBFC;" points="1872.296,1706.608 503.125,1706.608 632.009,927.933 2001.18,927.933 		"/>
		<polygon style="fill:#EFF6F9;" points="1865.538,1699.85 496.367,1699.85 625.251,921.175 1994.422,921.175 		"/>
		<polygon style="fill:#E6F2F6;" points="1858.779,1693.091 489.608,1693.091 618.492,914.417 1987.663,914.417 		"/>
		<polygon style="fill:#DEEEF3;" points="1852.021,1686.333 482.85,1686.333 611.734,907.658 1980.905,907.658 		"/>
		<polygon style="fill:#D6EAF0;" points="1845.262,1679.574 476.091,1679.574 604.975,900.899 1974.146,900.899 		"/>
		<polygon style="fill:#CEE5EE;" points="1838.504,1672.816 469.333,1672.816 598.217,894.141 1967.388,894.141 		"/>
		<polygon style="fill:#C5E1EB;" points="1831.745,1666.057 462.574,1666.057 591.458,887.383 1960.629,887.383 		"/>
		<polygon style="fill:#BDDDE8;" points="1824.987,1659.299 455.816,1659.299 584.7,880.624 1953.871,880.624 		"/>
		<polygon style="fill:#B5D9E5;" points="1818.228,1652.541 449.057,1652.541 577.941,873.865 1947.112,873.865 		"/>
		<polygon style="fill:#ADD4E2;" points="1811.47,1645.782 442.299,1645.782 571.183,867.107 1940.354,867.107 		"/>
		<polygon style="fill:#A5D0DF;" points="1804.711,1639.024 435.54,1639.024 564.424,860.349 1933.595,860.349 		"/>
		<polygon style="fill:#9CCCDC;" points="1797.953,1632.265 428.782,1632.265 557.666,853.59 1926.837,853.59 		"/>
		<polygon style="fill:#94C8D9;" points="1791.194,1625.507 422.023,1625.507 550.907,846.831 1920.078,846.831 		"/>
		<polygon style="fill:#8CC3D6;" points="1784.436,1618.748 415.265,1618.748 544.149,840.073 1913.32,840.073 		"/>
		<polygon style="fill:#84BFD3;" points="1777.677,1611.99 408.507,1611.99 537.39,833.315 1906.562,833.315 		"/>
		<polygon style="fill:#7BBBD1;" points="1770.919,1605.231 401.748,1605.231 530.632,826.556 1899.803,826.556 		"/>
		<polygon style="fill:#73B7CE;" points="1764.16,1598.473 394.99,1598.473 523.873,819.797 1893.045,819.797 		"/>
		<polygon style="fill:#6BB2CB;" points="1757.402,1591.714 388.231,1591.714 517.115,813.039 1886.286,813.039 		"/>
		<polygon style="fill:#63AEC8;" points="1750.643,1584.956 381.473,1584.956 510.356,806.281 1879.528,806.281 		"/>
		<polygon style="fill:#5AAAC5;" points="1743.885,1578.197 374.714,1578.197 503.598,799.522 1872.769,799.522 		"/>
		<polygon style="fill:#52A6C2;" points="1737.126,1571.439 367.956,1571.439 496.839,792.763 1866.011,792.763 		"/>
		<polygon style="fill:#4AA1BF;" points="1730.368,1564.68 361.197,1564.68 490.081,786.005 1859.252,786.005 		"/>
		<polygon style="fill:#429DBC;" points="1723.609,1557.922 354.439,1557.922 483.322,779.247 1852.494,779.247 		"/>
		<polygon style="fill:#3A99B9;" points="1716.851,1551.163 347.68,1551.163 476.564,772.488 1845.735,772.488 		"/>
		<polygon style="fill:#3195B6;" points="1710.093,1544.405 340.922,1544.405 469.805,765.729 1838.977,765.729 		"/>
		<polygon style="fill:#2990B4;" points="1703.334,1537.646 334.163,1537.646 463.047,758.971 1832.218,758.971 		"/>
		<polygon style="fill:#218CB1;" points="1696.576,1530.888 327.405,1530.888 456.288,752.213 1825.46,752.213 		"/>
		<polygon style="fill:#1988AE;" points="1689.817,1524.13 320.646,1524.13 449.53,745.454 1818.701,745.454 		"/>
		<polygon style="fill:#1084AB;" points="1683.059,1517.371 313.888,1517.371 442.771,738.695 1811.943,738.695 		"/>
		<polygon style="fill:#087FA8;" points="1676.3,1510.613 307.129,1510.613 436.013,731.937 1805.184,731.937 		"/>
		<polygon style="fill:#007BA5;" points="1669.542,1503.854 300.371,1503.854 429.254,725.179 1798.426,725.179 		"/>
	</g>
	<polygon style="fill:#007BA5;" points="1669.542,1503.854 300.371,1503.854 429.254,725.179 1798.426,725.179 	"/>
	<polygon style="fill:#FFFFFF;" points="1684.936,1453.338 303.459,1453.338 433.501,667.664 1814.979,667.664 	"/>
	<g>
		<path style="fill:#FFC500;" d="M1676.679,1446.198H280.268L412.75,645.793h1396.408L1676.679,1446.198z M297.64,1431.466h1366.545
			l127.602-770.942H425.244L297.64,1431.466z"/>
	</g>
	<g>
		<path style="fill:#FFC500;" d="M452.1,996.783c-10.088-16.292-12.595-39.792-7.509-70.51l16.879-101.976
			c5.2-31.413,15.461-55.153,30.79-71.212c15.321-16.055,38.378-24.089,69.165-24.089c29.358,0,48.96,7.092,58.814,21.277
			c9.844,14.185,12.577,34.519,8.193,61.011l-3.956,23.914h-56.833l4.363-26.377c1.399-8.441,2.111-15.234,2.137-20.392
			c0.018-5.158-1.403-9.438-4.269-12.84c-2.874-3.395-7.855-5.1-14.962-5.1c-10.653,0-18.09,3.406-22.291,10.2
			c-4.204,6.801-7.388,16.764-9.56,29.891l-21.421,129.41c-2.216,13.365-2.09,23.331,0.378,29.891
			c2.467,6.564,8.549,9.847,18.259,9.847c9.948,0,16.889-3.341,20.838-10.023c3.949-6.682,7.006-16.58,9.178-29.715l4.6-27.783
			h56.832l-3.899,23.561c-4.503,27.201-14.023,48.24-28.563,63.126s-36.613,22.327-66.209,22.327
			C482.508,1021.221,462.188,1013.078,452.1,996.783z"/>
		<path style="fill:#FFC500;" d="M648.751,997.484c-10.405-15.822-13.063-39.088-7.981-69.802l17.576-106.198
			c5.085-30.711,15.419-53.808,31.006-69.276c15.58-15.476,38.648-23.212,69.193-23.212c30.308,0,50.744,7.797,61.307,23.385
			c10.559,15.595,13.318,38.63,8.272,69.104l-17.633,106.551c-5.046,30.477-15.447,53.627-31.208,69.449
			c-15.763,15.824-38.799,23.737-69.107,23.737C679.63,1021.221,659.152,1013.308,648.751,997.484z M738.772,969.704
			c4.539-6.682,7.78-15.879,9.718-27.607l22.294-134.683c1.939-11.721,1.723-20.802-0.64-27.251
			c-2.367-6.449-8.52-9.675-18.468-9.675c-9.941,0-17.17,3.226-21.669,9.675c-4.503,6.449-7.721,15.53-9.66,27.251l-22.295,134.683
			c-1.978,11.958-1.855,21.223,0.378,27.783c2.226,6.564,8.434,9.847,18.615,9.847C726.99,979.727,734.233,976.386,738.772,969.704z
			"/>
		<path style="fill:#FFC500;" d="M885.831,732.513h62.155l5.776,179.693l67.392-179.693h60.027l-41.817,284.841h-42.622
			l27.395-193.414l-68.953,193.414h-36.228l-5.815-194.468l-36.451,194.468H833.71L885.831,732.513z"/>
		<path style="fill:#FFC500;" d="M1129.481,732.513h58.25l-47.147,284.841h-58.249L1129.481,732.513z"/>
		<path style="fill:#FFC500;" d="M1231.414,732.513h40.846l39.432,148.047l24.503-148.047h48.658l-47.147,284.841h-39.425
			l-37.854-157.542l-26.078,157.542h-50.082L1231.414,732.513z"/>
		<path style="fill:#FFC500;" d="M1398.229,996.078c-9.146-16.997-11.095-41.321-5.859-72.971l15.774-95.294
			c5.355-32.354,15.753-56.911,31.2-73.675c15.436-16.756,38.551-25.144,69.338-25.144c29.596,0,49.485,7.154,59.674,21.45
			c10.178,14.303,13.041,34.937,8.581,61.893l-2.737,16.529h-56.832l3.316-20.047c2.176-13.127,2.291-22.795,0.363-29.01
			c-1.935-6.207-8.107-9.322-18.522-9.322c-10.66,0-18.112,3.518-22.349,10.548c-4.244,7.039-7.47,17.235-9.682,30.599
			l-20.953,126.595c-2.216,13.361-2.014,23.622,0.59,30.772c2.6,7.154,9.113,10.724,19.536,10.724
			c10.179,0,17.972-3.812,23.381-11.429c5.399-7.618,9.233-18.227,11.48-31.822l5.006-30.247h-28.06l5.823-35.163h80.983
			l-24.215,146.289h-38.36l0.288-25.323c-12.027,19.694-29.398,29.542-52.132,29.542
			C1425.918,1021.573,1407.371,1013.078,1398.229,996.078z"/>
	</g>
	<g>
		<path style="fill:#002E46;" d="M913.355,1325.304c-10.481-13.89-13.876-35.408-10.193-64.546l49.942-8.133
			c-2.424,17.397-2.086,30.215,0.992,38.455c3.086,8.25,9.078,12.371,17.976,12.371c6.617,0,11.753-2.086,15.414-6.272
			c3.654-4.176,6.028-9.542,7.107-16.095c1.798-10.84,0.863-20.04-2.784-27.61c-3.661-7.568-9.984-15.868-18.983-24.906
			l-24.651-24.733c-9.84-9.488-16.882-19.651-21.133-30.491c-4.251-10.844-5.121-23.831-2.618-38.969
			c3.698-22.359,13.228-39.583,28.571-51.667c15.35-12.084,34.771-18.13,58.271-18.13c25.096,0,41.36,7.175,48.798,21.518
			c7.43,14.342,10.012,32.584,7.71,54.721l-50.114,7.114c1.935-14.451,2.05-25.126,0.338-32.02
			c-1.712-6.887-6.79-10.333-15.228-10.333c-6.157,0-11.336,2.316-15.523,6.945c-4.193,4.632-6.804,10.113-7.855,16.432
			c-1.496,9.035-0.762,16.663,2.201,22.87c2.964,6.218,8.164,13.045,15.602,20.5l24.025,24.391
			c11.322,11.524,19.694,23.669,25.118,36.429c5.409,12.76,6.697,27.73,3.863,44.892c-2.172,13.103-7.078,24.791-14.703,35.067
			c-7.646,10.282-17.364,18.357-29.168,24.229c-11.811,5.866-24.787,8.804-38.936,8.804
			C941.847,1346.138,923.835,1339.194,913.355,1325.304z"/>
		<path style="fill:#002E46;" d="M1087.197,1323.272c-10.028-15.25-12.588-37.663-7.69-67.259l16.94-102.325
			c4.899-29.589,14.854-51.841,29.866-66.744c15.012-14.911,37.245-22.367,66.673-22.367c29.203,0,48.891,7.517,59.069,22.532
			c10.178,15.026,12.833,37.217,7.97,66.579l-16.99,102.667c-4.863,29.366-14.882,51.667-30.068,66.917
			c-15.192,15.245-37.382,22.866-66.586,22.866C1116.947,1346.138,1097.217,1338.518,1087.197,1323.272z M1173.931,1296.503
			c4.374-6.438,7.495-15.3,9.366-26.597l21.478-129.77c1.87-11.293,1.662-20.044-0.611-26.259
			c-2.287-6.211-8.214-9.318-17.796-9.318s-16.544,3.108-20.874,9.318c-4.337,6.215-7.444,14.966-9.315,26.259l-21.478,129.77
			c-1.906,11.52-1.791,20.443,0.359,26.766c2.151,6.326,8.128,9.488,17.939,9.488
			C1162.58,1306.16,1169.558,1302.941,1173.931,1296.503z"/>
		<path style="fill:#002E46;" d="M1284.316,1323.272c-10.028-15.25-12.588-37.663-7.69-67.259l16.933-102.325
			c4.898-29.589,14.854-51.841,29.872-66.744c15.012-14.911,37.239-22.367,66.673-22.367c29.203,0,48.891,7.517,59.069,22.532
			c10.171,15.026,12.833,37.217,7.97,66.579l-16.997,102.667c-4.855,29.366-14.882,51.667-30.067,66.917
			c-15.184,15.245-37.382,22.866-66.586,22.866C1314.066,1346.138,1294.335,1338.518,1284.316,1323.272z M1371.05,1296.503
			c4.366-6.438,7.495-15.3,9.365-26.597l21.479-129.77c1.87-11.293,1.661-20.044-0.619-26.259c-2.28-6.211-8.208-9.318-17.796-9.318
			c-9.581,0-16.544,3.108-20.874,9.318c-4.338,6.215-7.438,14.966-9.308,26.259l-21.478,129.77
			c-1.906,11.52-1.791,20.443,0.359,26.766c2.143,6.326,8.121,9.488,17.932,9.488
			C1359.699,1306.16,1366.676,1302.941,1371.05,1296.503z"/>
		<path style="fill:#002E46;" d="M1508.97,1067.965h39.36l37.986,142.646l23.615-142.646h46.884l-45.431,274.448h-37.987
			l-36.476-151.792l-25.125,151.792h-48.251L1508.97,1067.965z"/>
	</g>
	<g>
		
			<linearGradient id="SVGID_1_" gradientUnits="userSpaceOnUse" x1="668.8084" y1="1324.6112" x2="668.8084" y2="1088.4969" gradientTransform="matrix(1.0054 -0.0362 -0.1312 0.9993 -101.1211 118.2478)">
			<stop  offset="0" style="stop-color:#002436"/>
			<stop  offset="0.5" style="stop-color:#005480"/>
			<stop  offset="1" style="stop-color:#002436"/>
		</linearGradient>
		<path style="fill:url(#SVGID_1_);" d="M444.215,1393.234c-94.909,9.975-101.076,9.797-109.359,8.632
			c-27.123-4.595-40.326-29.922-36.221-57.844c2.805-19.117,3.517-33.379,16.825-50.855c8.608-11.434,20.082-19.561,35.791-24.077
			c13.732-2.971,17.747-0.683,130.86,1.579c6.935,0.139,9.673,1.165,13.522,2.389c27.297,12.727,23.453,36.571,20.926,64.767
			C509.006,1386.17,477.905,1389.595,444.215,1393.234z M498.595,1338.472c3.106-17.505,6.793-29.244-1.128-39.735
			c-3.869-5.204-10.09-8.689-17.994-7.968c-5.83,0.533-120.165,10.929-125.618,12.955c-6.284,2.908-12.528,11.827-13.202,20.978
			c-1.661,14.682-6.301,34.55,7.059,38.233c0.057-0.002-0.154,0.087,0.082,0.203c4.138,0.197,1.586,0.172,7.412,0.114
			c55.587-0.066,96.354,2.574,116.458,2.943c7.806,0.092,22.176-7.159,26.992-28.116L498.595,1338.472z"/>
		
			<linearGradient id="SVGID_00000053512738704556489110000013283720277828470430_" gradientUnits="userSpaceOnUse" x1="587.2076" y1="1243.3787" x2="743.4796" y2="1243.3787" gradientTransform="matrix(1.0054 -0.0362 -0.1312 0.9993 -101.1211 118.2478)">
			<stop  offset="0" style="stop-color:#002436"/>
			<stop  offset="0.5" style="stop-color:#005480"/>
			<stop  offset="1" style="stop-color:#002436"/>
		</linearGradient>
		<path style="fill:url(#SVGID_00000053512738704556489110000013283720277828470430_);" d="M339.39,1325.853
			c-1.66,14.682-5.358,35.847,8.001,39.534c0.058-0.007,1.668,0.376,7.495,0.313c55.586-0.062,96.375,2.406,116.48,2.775
			c6.599,0.078,25.844-7.408,24.414-21.679c-4.75,3.596-9.659,5.101-13.211,5.057c-20.105-0.369-60.872-3.009-116.458-2.943
			c-5.826,0.058-3.275,0.083-7.413-0.114c-0.236-0.116-0.024-0.206-0.081-0.203c-13.36-3.683-8.72-23.551-7.06-38.233
			c0.152-2.048,0.617-4.078,1.262-6.038C346.902,1307.683,340.027,1317.21,339.39,1325.853z"/>
		
			<linearGradient id="SVGID_00000183209265133561241280000013188479727827637893_" gradientUnits="userSpaceOnUse" x1="680.7945" y1="1265.1659" x2="680.7945" y2="1032.1714" gradientTransform="matrix(1.0054 -0.0362 -0.1312 0.9993 -101.1211 118.2478)">
			<stop  offset="0" style="stop-color:#002436"/>
			<stop  offset="0.5" style="stop-color:#005480"/>
			<stop  offset="1" style="stop-color:#002436"/>
		</linearGradient>
		<path style="fill:url(#SVGID_00000183209265133561241280000013188479727827637893_);" d="M506.537,1258.716
			c-3.849-1.224-6.586-2.25-13.522-2.389c-113.113-2.262-117.129-4.55-130.86-1.579c-15.71,4.516-27.184,12.643-35.791,24.077
			c-2.03,2.665-3.74,5.252-5.235,7.797c7.828-8.019,17.615-13.937,30.121-17.533c13.732-2.971,17.747-0.683,130.86,1.579
			c6.935,0.139,9.673,1.165,13.522,2.389c27.297,12.727,21.429,36.644,18.901,64.839c-1.542,9.867-4.289,15.975-5.378,24.269
			c8.844-7.866,15.366-19.862,18.306-38.684C529.99,1295.288,533.834,1271.443,506.537,1258.716z"/>
		
			<linearGradient id="SVGID_00000036946259529325394210000003697190905465204919_" gradientUnits="userSpaceOnUse" x1="741.2247" y1="947.9294" x2="741.2247" y2="1292.1931" gradientTransform="matrix(1.0054 -0.0362 -0.1312 0.9993 -101.1211 118.2478)">
			<stop  offset="0" style="stop-color:#FF8000"/>
			<stop  offset="0.5" style="stop-color:#EFEFEF"/>
			<stop  offset="1" style="stop-color:#1A1A1A"/>
		</linearGradient>
		<path style="fill:url(#SVGID_00000036946259529325394210000003697190905465204919_);" d="M699.303,1393.207l-244.675-69.251
			c-22.044-6.18-45.123-9.652-68.814-10.312c-6.272-0.171-12.61-0.144-18.976,0.085l-61.638,2.222
			c-21.674,0.781-38.148-12.69-41.707-32.01c-0.815-4.478-0.951-9.252-0.294-14.257l9.192-70.036
			c0.111-0.84,0.256-1.644,0.407-2.486c0.079-0.602,0.202-1.241,0.366-1.886c0.11-0.521,0.259-1.048,0.413-1.61
			c0.165-0.645,0.33-1.289,0.533-1.931c0.421-1.373,0.881-2.745,1.383-4.117c0.005-0.039,0.01-0.078,0.057-0.122
			c0.506-1.412,1.122-2.75,1.78-4.089c0.329-0.689,0.655-1.339,1.022-1.991c0.365-0.647,0.731-1.299,1.098-1.95
			c0.365-0.651,0.772-1.304,1.173-1.914c0.462-0.776,0.919-1.508,1.453-2.205c0.344-0.491,0.684-0.943,1.03-1.434
			c5.352-7.167,12.271-13.154,20.083-17.381c0.521-0.299,1.034-0.555,1.545-0.772c1.123-0.601,2.232-1.12,3.377-1.597
			c1.187-0.483,2.372-0.965,3.547-1.365c1.428-0.488,2.845-0.901,4.297-1.268c0.706-0.185,1.452-0.371,2.153-0.518
			c2.107-0.476,4.233-0.79,6.379-0.946c0.852-0.074,1.661-0.141,2.507-0.172l61.719-2.225c6.365-0.229,12.715-0.656,19.093-1.287
			c24.045-2.338,48.254-7.476,72.016-15.307l265.482-87.444c-10.73,6.602-21.165,16.148-30.876,28.134
			c-19.163,23.486-35.614,56.281-46.657,93.983c-5.135,17.438-9.088,35.954-11.601,55.096c-2.575,19.619-3.45,38.503-2.797,56.132
			c0.647,17.074,2.724,33.022,6.094,47.367C666.934,1356.634,680.841,1381.12,699.303,1393.207z"/>
		
			<linearGradient id="SVGID_00000132784745442906353220000002490354275136671114_" gradientUnits="userSpaceOnUse" x1="844.6545" y1="1231.2502" x2="363.5163" y2="1231.2502" gradientTransform="matrix(1.0054 -0.0362 -0.1312 0.9993 -101.1211 118.2478)">
			<stop  offset="0" style="stop-color:#CFCFCF"/>
			<stop  offset="0.8495" style="stop-color:#000000"/>
		</linearGradient>
		<path style="opacity:0.3;fill:url(#SVGID_00000132784745442906353220000002490354275136671114_);" d="M661.554,1308.428
			c-3.661-12.123-6.061-25.612-7.053-40.058c-0.118-1.763-0.146-3.583-0.222-5.374l-389.614,14.046
			c4.224,15.995,20.804,27.014,42.198,26.243l61.638-2.221c6.366-0.23,12.709-0.287,18.989-0.179
			c23.72,0.429,46.886,3.241,69.071,8.349l246.248,57.266C684.09,1356.37,669.68,1335.717,661.554,1308.428z"/>
		
			<linearGradient id="SVGID_00000054980818256478878140000005761253620466385829_" gradientUnits="userSpaceOnUse" x1="986.8889" y1="1080.5723" x2="620.2359" y2="1080.5723" gradientTransform="matrix(1.0054 -0.0362 -0.1312 0.9993 -101.1211 118.2478)">
			<stop  offset="0" style="stop-color:#CFCFCF"/>
			<stop  offset="0.8495" style="stop-color:#000000"/>
		</linearGradient>
		<path style="opacity:0.3;fill:url(#SVGID_00000054980818256478878140000005761253620466385829_);" d="M654.071,1258.021
			c-0.242-11.889,0.413-24.339,2.099-37.185c2.127-16.213,5.711-31.91,10.498-46.7c10.292-31.978,26.094-59.826,44.797-79.812
			c9.477-10.2,19.727-18.338,30.332-23.986l-263.913,75.486c-23.62,6.76-47.744,11.244-71.76,13.36
			c-6.368,0.564-12.715,0.964-19.081,1.194l-61.719,2.225c-0.846,0.03-1.655,0.094-2.505,0.156
			c-2.146,0.147-4.266,0.423-6.365,0.837c-0.698,0.13-1.442,0.289-2.144,0.451c-1.446,0.32-2.856,0.675-4.276,1.1
			c-1.167,0.345-2.343,0.758-3.521,1.174c-1.137,0.41-2.237,0.855-3.348,1.37c-0.506,0.186-1.015,0.406-1.53,0.662
			c-7.733,3.622-14.537,8.728-19.748,14.824c-0.337,0.417-0.667,0.802-1.002,1.219c-0.52,0.591-0.962,1.218-1.408,1.872
			c-0.39,0.52-0.783,1.075-1.137,1.629c-0.354,0.554-0.707,1.108-1.059,1.657c-0.355,0.554-0.668,1.106-0.984,1.693
			c-0.631,1.136-1.22,2.27-1.699,3.471c-0.046,0.033-0.051,0.068-0.055,0.103c-0.474,1.165-0.906,2.325-1.3,3.491
			c-0.191,0.544-0.342,1.09-0.495,1.637c-0.142,0.476-0.281,0.921-0.381,1.364c-0.152,0.547-0.261,1.088-0.328,1.601
			c-0.135,0.713-0.264,1.391-0.357,2.102l-7.788,59.337c-0.351,2.667-0.354,5.244-0.109,7.737L654.071,1258.021z"/>
		
			<linearGradient id="SVGID_00000083782679076981055760000013570161244133750176_" gradientUnits="userSpaceOnUse" x1="579.1753" y1="1053.4442" x2="579.1753" y2="1219.7704" gradientTransform="matrix(1.0054 -0.0362 -0.1312 0.9993 -101.1211 118.2478)">
			<stop  offset="0" style="stop-color:#002436"/>
			<stop  offset="0.5" style="stop-color:#005480"/>
			<stop  offset="1" style="stop-color:#002436"/>
		</linearGradient>
		<path style="fill:url(#SVGID_00000083782679076981055760000013570161244133750176_);" d="M385.775,1313.326
			c0.023,0.12,0.013,0.198,0.038,0.317c-12.228-0.318-13.456-0.114-80.615,2.307c-26.307,0.949-44.698-18.992-42.177-44.63
			l0.036-0.277c0.018-0.441,0.082-0.922,0.139-1.36c4.147-31.597,9.071-79.197,12.352-82.187c3.88-10.94,9.522-18.795,16.602-24.468
			c25.488-20.371,69.552-12.112,115.654-16.647c-1.751,3.893-3.472,8.139-5.109,12.662c-0.864,2.3-1.662,4.722-2.466,7.179
			c-0.932,2.825-1.8,5.767-2.677,8.787C386.135,1214.357,379.525,1268.078,385.775,1313.326z"/>
		
			<linearGradient id="SVGID_00000052782670252881897340000017243784975678164110_" gradientUnits="userSpaceOnUse" x1="579.5586" y1="1225.1017" x2="579.5586" y2="1106.5629" gradientTransform="matrix(1.0054 -0.0362 -0.1312 0.9993 -101.1211 118.2478)">
			<stop  offset="0" style="stop-color:#CFCFCF"/>
			<stop  offset="0.8495" style="stop-color:#000000"/>
		</linearGradient>
		<path style="opacity:0.3;fill:url(#SVGID_00000052782670252881897340000017243784975678164110_);" d="M383.976,1296.173
			c-0.284-3.932-0.479-7.953-0.582-12.052c-0.107-3.927-0.118-7.959-0.086-12.019l-120.504,4.344
			c0.021,2.572,0.244,5.078,0.688,7.495c0.166,0.87,0.339,1.7,0.591,2.528c4.458,17.972,20.41,30.229,41.117,29.482l61.638-2.222
			c6.366-0.229,12.704-0.256,18.976-0.085c-0.025-0.119-0.015-0.197-0.038-0.317
			C385.014,1307.815,384.366,1302.059,383.976,1296.173z"/>
		
			<linearGradient id="SVGID_00000039121746288401031350000016571882218201538439_" gradientUnits="userSpaceOnUse" x1="577.6536" y1="1065.5466" x2="577.6536" y2="1172.6902" gradientTransform="matrix(1.0054 -0.0362 -0.1312 0.9993 -101.1211 118.2478)">
			<stop  offset="0" style="stop-color:#CFCFCF"/>
			<stop  offset="0.8495" style="stop-color:#000000"/>
		</linearGradient>
		<path style="opacity:0.5;fill:url(#SVGID_00000039121746288401031350000016571882218201538439_);" d="M403.099,1159.029
			c-0.995,2.386-1.95,4.771-2.869,7.194c-1.139,2.871-2.248,5.822-3.282,8.809c-0.177,0.442-0.361,0.928-0.499,1.372
			c-5.871,17.227-10.144,35.436-12.615,54.257c-1.392,10.609-2.195,21.002-2.272,31.046c-0.034,1.795-0.07,3.591-0.018,5.341
			l-118.523,4.272l0.036-0.277c0.018-0.441,0.082-0.922,0.139-1.36c4.147-31.597,9.071-79.197,12.352-82.187
			c3.88-10.94,9.522-18.795,16.602-24.468L403.099,1159.029z"/>
		<path style="fill:#FF8000;" d="M832.98,1214.427c-13.735,104.65-65.587,190.95-115.818,192.761
			c-50.231,1.811-79.813-81.554-66.078-186.203c13.734-104.646,65.585-190.947,115.815-192.758
			C817.13,1026.416,846.715,1109.781,832.98,1214.427z"/>
		
			<linearGradient id="SVGID_00000031171955554017451850000007584260984195452324_" gradientUnits="userSpaceOnUse" x1="1096.3923" y1="956.1887" x2="1096.3923" y2="1316.1737" gradientTransform="matrix(0.8936 -0.0322 -0.1312 0.9993 -88.6316 117.581)">
			<stop  offset="0" style="stop-color:#002436"/>
			<stop  offset="0.5" style="stop-color:#005480"/>
			<stop  offset="1" style="stop-color:#002436"/>
		</linearGradient>
		<path style="fill:url(#SVGID_00000031171955554017451850000007584260984195452324_);" d="M824.107,1214.747
			c-12.992,98.996-60.271,180.571-105.601,182.205c-45.331,1.634-71.542-77.291-58.549-176.288
			c12.992-98.992,60.269-180.566,105.599-182.201C810.886,1036.829,837.099,1115.755,824.107,1214.747z"/>
		
			<linearGradient id="SVGID_00000000910698565483051690000007219448232382679435_" gradientUnits="userSpaceOnUse" x1="984.6812" y1="753.5844" x2="984.6812" y2="1518.9437" gradientTransform="matrix(1.0054 -0.0362 -0.1312 0.9993 -101.1211 118.2478)">
			<stop  offset="0" style="stop-color:#1A1A1A"/>
			<stop  offset="0.5" style="stop-color:#EFEFEF"/>
			<stop  offset="1" style="stop-color:#1A1A1A"/>
		</linearGradient>
		<path style="fill:url(#SVGID_00000000910698565483051690000007219448232382679435_);" d="M806.105,1215.419
			c-12.901,98.297-56.802,168.089-88.165,169.219c-25.254,0.91-46.957-42.507-47.705-110.749
			c-0.239-16.532,0.807-34.488,3.328-53.692c2.512-19.146,6.199-37.251,10.802-53.965c18.76-69.003,52.12-114.403,77.374-115.313
			C793.103,1049.788,819.014,1117.061,806.105,1215.419z"/>
		
			<linearGradient id="SVGID_00000106861108099805661550000014803865829876370582_" gradientUnits="userSpaceOnUse" x1="1000.8068" y1="300.6625" x2="1000.8068" y2="632.0577" gradientTransform="matrix(-1.0054 0.0362 0.1312 -0.9993 1697.7782 1637.0295)">
			<stop  offset="0" style="stop-color:#1A1A1A"/>
			<stop  offset="0.5" style="stop-color:#EFEFEF"/>
			<stop  offset="1" style="stop-color:#1A1A1A"/>
		</linearGradient>
		<path style="opacity:0.5;fill:url(#SVGID_00000106861108099805661550000014803865829876370582_);" d="M739.013,1086.283
			c20.824-0.75,38.073,39.979,37.69,103.867c-0.043,15.48-1.169,32.282-3.527,50.251c-2.351,17.914-5.652,34.846-9.693,50.473
			c-8.236,32.265-19.39,58.989-31.094,77.742c18.32-13.481,38.822-50.769,51.928-102.109c4.036-15.623,7.339-32.559,9.69-50.473
			c2.358-17.964,3.483-34.771,3.53-50.251c0.382-63.885-16.867-104.618-37.691-103.867c-10.408,0.375-22.649,11.169-34.351,29.906
			C730.198,1088.36,734.761,1086.436,739.013,1086.283z"/>
		
			<linearGradient id="SVGID_00000181084355565118386650000012398673972718190723_" gradientUnits="userSpaceOnUse" x1="953.394" y1="1086.1736" x2="953.394" y2="1189.7098" gradientTransform="matrix(1.0054 -0.0362 -0.1312 0.9993 -101.1211 118.2478)">
			<stop  offset="0" style="stop-color:#002436"/>
			<stop  offset="0.5" style="stop-color:#005480"/>
			<stop  offset="1" style="stop-color:#002436"/>
		</linearGradient>
		<path style="fill:url(#SVGID_00000181084355565118386650000012398673972718190723_);" d="M735.547,1217.963
			c-3.717,28.327-28.678,52.338-56.932,55.625c-0.718-16.515,0.073-34.462,2.594-53.666c2.512-19.146,6.454-37.261,11.536-53.992
			C720.4,1167.206,739.265,1189.639,735.547,1217.963z"/>
		
			<linearGradient id="SVGID_00000059279760394411151690000002762742184701299617_" gradientUnits="userSpaceOnUse" x1="632.124" y1="1066.0374" x2="635.4511" y2="1219.0549" gradientTransform="matrix(1.0054 -0.0362 -0.1312 0.9993 -101.1211 118.2478)">
			<stop  offset="0" style="stop-color:#002436"/>
			<stop  offset="0.5" style="stop-color:#005480"/>
			<stop  offset="1" style="stop-color:#002436"/>
		</linearGradient>
		<path style="fill:url(#SVGID_00000059279760394411151690000002762742184701299617_);" d="M383.976,1296.173
			c0.39,5.886,1.039,11.642,1.799,17.153c-3.645-0.029-7.3,0.026-10.967,0.158c-3.377-24.67-3.384-52.726,0.526-82.516
			c3.931-29.954,11.348-58.356,21.319-83.624c3.667-0.132,7.344-0.346,11.03-0.639c-10.018,25.312-17.485,53.798-21.431,83.869
			c-1.392,10.609-2.316,21.007-2.714,31.062C383.049,1273.61,383.216,1285.163,383.976,1296.173z"/>
		
			<linearGradient id="SVGID_00000147918077675416350550000014369903467490582417_" gradientUnits="userSpaceOnUse" x1="949.8005" y1="1104.2604" x2="949.8005" y2="1144.214" gradientTransform="matrix(1.0054 -0.0362 -0.1312 0.9993 -101.1211 118.2478)">
			<stop  offset="0" style="stop-color:#1A1A1A"/>
			<stop  offset="0.5" style="stop-color:#EFEFEF"/>
			<stop  offset="1" style="stop-color:#1A1A1A"/>
		</linearGradient>
		<path style="opacity:0.5;fill:url(#SVGID_00000147918077675416350550000014369903467490582417_);" d="M719.972,1206.078
			c-1.506,11.473-8.801,20.991-16.293,21.261c-7.491,0.27-12.345-8.81-10.839-20.283c1.506-11.474,8.8-20.991,16.291-21.261
			C716.625,1185.525,721.479,1194.605,719.972,1206.078z"/>
	</g>
	<g>
		
			<rect x="1731.395" y="488.102" transform="matrix(0.7071 -0.7071 0.7071 0.7071 202.7097 1472.9535)" style="fill:#007BA5;" width="295.944" height="7.365"/>
	</g>
	<g>
		
			<rect x="125.902" y="1682.855" transform="matrix(0.7071 -0.7071 0.7071 0.7071 -1110.9386 691.0325)" style="fill:#007BA5;" width="305.557" height="7.365"/>
	</g>
	<g>
		
			<rect x="1092.705" y="1539.906" transform="matrix(0.7071 -0.7071 0.7071 0.7071 -713.5824 1364.4623)" style="fill:#007BA5;" width="395.06" height="7.365"/>
	</g>
	<g>
		
			<rect x="172.3" y="707.311" transform="matrix(0.7072 -0.7071 0.7071 0.7072 -373.1704 520.9876)" style="fill:#007BA5;" width="540.125" height="7.365"/>
	</g>
</g>
</svg>
